<?xml version="1.0" encoding="UTF-8" standalone="no"?>
<svg width="80px" height="120px" viewBox="0 0 80 120" version="1.1" xmlns="http://www.w3.org/2000/svg" xmlns:xlink="http://www.w3.org/1999/xlink" xmlns:sketch="http://www.bohemiancoding.com/sketch/ns">
    <!-- Generator: Sketch 3.0.4 (8054) - http://www.bohemiancoding.com/sketch -->
    <title>Slice 2</title>
    <desc>Created with Sketch.</desc>
    <defs></defs>
    <g id="Page-1" stroke="none" stroke-width="1" fill="none" fill-rule="evenodd" sketch:type="MSPage">
        <g id="Group" sketch:type="MSLayerGroup" transform="translate(1.000000, -1.000000)">
            <path d="M39,1.95 C17.4607875,1.95 0,19.4107875 0,40.95 C0,47.877375 1.8603,54.35625 5.0271,59.99175 C5.5531125,60.92775 6.104475,61.849125 6.703125,62.736375 L39,118.95 L71.296875,62.736375 C71.794125,62.00025 72.223125,61.22025 72.66675,60.45 L72.973875,59.99175 C76.13775,54.35625 78,47.877375 78,40.95 C78,19.4107875 60.53775,1.95 39,1.95 L39,1.95 Z M39,21.45 C49.768875,21.45 58.5,30.1806375 58.5,40.95 C58.5,51.718875 49.768875,60.45 39,60.45 C28.2306375,60.45 19.5,51.718875 19.5,40.95 C19.5,30.1806375 28.2306375,21.45 39,21.45 L39,21.45 Z" id="Shape" stroke="#C0392B" stroke-width="0.5" fill="#E74C3C" sketch:type="MSShapeGroup"></path>
            <path d="M39,16.575 C25.538175,16.575 14.625,27.488175 14.625,40.95 C14.625,54.409875 25.538175,65.325 39,65.325 C52.459875,65.325 63.375,54.409875 63.375,40.95 C63.375,27.488175 52.459875,16.575 39,16.575 L39,16.575 Z M39,26.325 C47.077875,26.325 53.625,32.8726125 53.625,40.95 C53.625,49.0273875 47.077875,55.575 39,55.575 C30.922125,55.575 24.375,49.0273875 24.375,40.95 C24.375,32.8726125 30.922125,26.325 39,26.325 L39,26.325 Z" id="Shape" fill="#C0392B" sketch:type="MSShapeGroup"></path>
        </g>
    </g>
</svg>