<?xml version="1.0" encoding="iso-8859-1"?>
<!-- Generator: Adobe Illustrator 18.1.1, SVG Export Plug-In . SVG Version: 6.00 Build 0)  -->
<svg version="1.1" id="&#x421;&#x43B;&#x43E;&#x439;_1"
	 xmlns="http://www.w3.org/2000/svg" xmlns:xlink="http://www.w3.org/1999/xlink" x="0px" y="0px" viewBox="0 0 16.779 18.179"
	 style="enable-background:new 0 0 16.779 18.179;" xml:space="preserve">
<g>
	<path style="fill:#F92423;" d="M16.245,8.018c0.357,0.54,0.535,1.133,0.535,1.782c0,0.75-0.276,1.401-0.829,1.955
		c-0.554,0.554-1.209,0.831-1.966,0.831h-1.922c0.349,0.721,0.524,1.42,0.524,2.097c0,0.86-0.128,1.537-0.383,2.032
		c-0.255,0.503-0.627,0.872-1.115,1.109c-0.488,0.236-1.038,0.355-1.65,0.355c-0.371,0-0.699-0.135-0.982-0.405
		c-0.248-0.24-0.445-0.539-0.59-0.896c-0.146-0.357-0.239-0.687-0.279-0.989c-0.04-0.302-0.104-0.61-0.191-0.923
		c-0.087-0.313-0.2-0.546-0.338-0.699c-0.35-0.364-0.739-0.827-1.169-1.388c-0.736-0.954-1.234-1.519-1.497-1.693H1.398
		c-0.386,0-0.716-0.136-0.989-0.41C0.136,10.503,0,10.174,0,9.788V2.796c0-0.386,0.137-0.716,0.41-0.989
		c0.273-0.273,0.603-0.409,0.989-0.409h3.146c0.16,0,0.662-0.146,1.507-0.437C6.984,0.641,7.795,0.4,8.488,0.24
		C9.18,0.08,9.908,0,10.673,0h1.223c1.02,0,1.844,0.288,2.475,0.863c0.63,0.576,0.941,1.362,0.933,2.359v0.055
		c0.438,0.56,0.656,1.208,0.656,1.944c0,0.16-0.011,0.317-0.033,0.47c0.276,0.488,0.415,1.012,0.415,1.573
		C16.343,7.526,16.31,7.778,16.245,8.018L16.245,8.018z M2.589,3.988c0.138-0.139,0.207-0.303,0.207-0.492
		c0-0.189-0.069-0.353-0.207-0.492C2.451,2.866,2.287,2.797,2.098,2.797c-0.189,0-0.353,0.069-0.492,0.207S1.398,3.307,1.398,3.496
		c0,0.189,0.069,0.353,0.207,0.492c0.138,0.138,0.303,0.208,0.492,0.208C2.287,4.195,2.451,4.126,2.589,3.988L2.589,3.988z
		 M14.955,10.766c0.285-0.28,0.426-0.606,0.426-0.977c0-0.255-0.078-0.55-0.235-0.885c-0.156-0.336-0.351-0.506-0.584-0.513
		c0.108-0.124,0.2-0.297,0.273-0.52c0.073-0.222,0.109-0.424,0.109-0.606c0-0.503-0.192-0.936-0.579-1.3
		c0.131-0.233,0.197-0.484,0.197-0.754c0-0.27-0.064-0.537-0.192-0.803c-0.127-0.266-0.3-0.457-0.519-0.574
		c0.036-0.219,0.055-0.422,0.055-0.611c0-0.62-0.178-1.078-0.535-1.377c-0.357-0.298-0.852-0.448-1.486-0.448h-1.398
		c-0.955,0-2.2,0.266-3.737,0.797C6.715,2.21,6.609,2.249,6.435,2.311C6.26,2.373,6.131,2.418,6.047,2.447
		C5.963,2.476,5.835,2.518,5.665,2.573c-0.172,0.055-0.31,0.095-0.415,0.12C5.144,2.718,5.023,2.742,4.889,2.764
		c-0.135,0.022-0.25,0.033-0.344,0.033H4.195v6.992h0.349c0.117,0,0.246,0.033,0.388,0.098c0.142,0.065,0.288,0.163,0.437,0.294
		c0.149,0.132,0.29,0.261,0.421,0.388c0.131,0.127,0.276,0.288,0.437,0.48c0.161,0.193,0.286,0.348,0.377,0.464
		c0.091,0.117,0.206,0.266,0.344,0.448c0.139,0.182,0.223,0.292,0.252,0.328c0.4,0.495,0.681,0.826,0.841,0.994
		c0.298,0.313,0.515,0.712,0.649,1.196c0.135,0.484,0.246,0.941,0.333,1.371c0.087,0.43,0.226,0.74,0.416,0.929
		c0.699,0,1.165-0.171,1.398-0.513c0.233-0.342,0.35-0.871,0.35-1.584c0-0.429-0.175-1.014-0.524-1.753
		c-0.35-0.739-0.523-1.32-0.523-1.742h3.845C14.347,11.187,14.671,11.047,14.955,10.766L14.955,10.766z M14.955,10.766"/>
</g>
</svg>
