<?xml version="1.0" encoding="iso-8859-1"?>
<!-- Generator: Adobe Illustrator 18.1.1, SVG Export Plug-In . SVG Version: 6.00 Build 0)  -->
<svg version="1.1" id="&#x421;&#x43B;&#x43E;&#x439;_1"
	 xmlns="http://www.w3.org/2000/svg" xmlns:xlink="http://www.w3.org/1999/xlink" x="0px" y="0px" viewBox="0 0 43 43"
	 style="enable-background:new 0 0 43 43;" xml:space="preserve">
<path style="fill:#FDF5BF;" d="M28.343,41.535L17.147,30.339c0,0-1.327-4.059,3.602-8.99c4.931-4.93,8.99-3.603,8.99-3.603
	l11.195,11.196c1.392-4.055-2.995-17.641-9.29-21.272c-6.294-3.631-14.04,1.089-14.04,1.089L10.705,1.86L5.983,6.583L1.26,11.305
	l6.899,6.899c0,0-4.72,7.746-1.089,14.04C10.701,38.539,24.288,42.927,28.343,41.535z"/>
<path style="fill:#F6D600;" d="M0.443,10.488c0.451-0.451,1.183-0.451,1.634,0l6.899,6.899c0.377,0.377,0.447,0.963,0.17,1.418
	c-0.043,0.071-4.314,7.249-1.075,12.862c2.907,5.04,12.714,8.717,17.742,8.972l-9.483-9.483c-0.129-0.128-0.226-0.285-0.282-0.458
	c-0.062-0.193-1.485-4.795,3.885-10.166c5.37-5.37,9.973-3.947,10.165-3.884c0.173,0.057,0.33,0.153,0.458,0.281l9.484,9.484
	c-0.255-5.028-3.933-14.835-8.973-17.742c-5.635-3.251-12.79,1.031-12.861,1.075c-0.455,0.277-1.041,0.207-1.418-0.17L9.889,2.677
	c-0.451-0.451-0.451-1.183,0-1.634c0.451-0.451,1.183-0.451,1.634,0l6.286,6.286c2.254-1.156,8.767-3.917,14.414-0.66
	c4.302,2.482,7.046,8.559,8.025,11.056c1.417,3.612,2.733,8.815,1.779,11.593c-0.129,0.376-0.443,0.66-0.832,0.75
	c-0.389,0.09-0.796-0.026-1.077-0.309L29.153,18.794c-0.839-0.147-3.868-0.347-7.587,3.372c-3.707,3.708-3.521,6.73-3.37,7.588
	l10.963,10.963c0.282,0.282,0.399,0.689,0.309,1.078c-0.091,0.388-0.374,0.703-0.751,0.833c-2.777,0.953-7.98-0.363-11.593-1.78
	c-2.497-0.98-8.574-3.724-11.056-8.025c-3.258-5.647-0.496-12.16,0.66-14.414l-6.286-6.286C-0.008,11.671-0.008,10.939,0.443,10.488
	z"/>
<rect id="_x3C_&#x424;&#x440;&#x430;&#x433;&#x43C;&#x435;&#x43D;&#x442;_x3E__1_" style="fill:none;" width="43" height="43"/>
</svg>
