<?xml version="1.0" encoding="iso-8859-1"?>
<!-- Generator: Adobe Illustrator 18.1.1, SVG Export Plug-In . SVG Version: 6.00 Build 0)  -->
<svg version="1.1" id="&#x421;&#x43B;&#x43E;&#x439;_1"
	 xmlns="http://www.w3.org/2000/svg" xmlns:xlink="http://www.w3.org/1999/xlink" x="0px" y="0px" viewBox="0 0 38.808 24.723"
	 style="enable-background:new 0 0 38.808 24.723;" xml:space="preserve">
<path style="fill-rule:evenodd;clip-rule:evenodd;fill:#898989;" d="M14.452,21.344c-0.111,0.074-0.224,0.157-0.343,0.228
	c-0.242,0.141-0.394,0.131-0.552-0.17c-0.12-0.229-0.413-0.366-0.629-0.543c-0.045,0.026-0.09,0.053-0.135,0.08
	c0.064-0.187,0.128-0.373,0.188-0.552c-0.303-0.286-0.63-0.325-0.986-0.17c-0.297,0.129-0.709-0.393-0.848,0.08
	c-0.437-0.088-0.805-0.169-1.179-0.228c-0.027-0.004-0.105,0.138-0.111,0.215c-0.008,0.103,0.035,0.208,0.047,0.266
	c-0.273,0.11-0.501,0.201-0.744,0.298c0.184,0.253,0.5,0.469,0.151,0.795c-0.037,0.035-0.089,0.106-0.107,0.099
	c-0.273-0.114-0.695-0.173-0.778-0.372c-0.233-0.552-0.678-0.518-1.06-0.567c-0.401-0.378-0.372-1.012-0.984-1.213
	c-0.559-0.183-1.008-0.077-1.425,0.34c-0.085-0.193-0.145-0.33-0.205-0.464c-0.538,0.187-0.731,0.706-0.481,1.224
	c0.053,0.111,0.068,0.268,0.035,0.386c-0.128,0.477-0.378,0.612-0.886,0.648c-0.384,0.028-0.617,0.212-0.501,0.6
	c0.021,0.069,0.013,0.158-0.012,0.228c-0.164,0.463-0.337,0.925-0.516,1.412c-0.256,0.022-0.359-0.073-0.446-0.399
	c-0.116-0.435-0.18-0.902-0.556-1.275c-0.382-0.381-0.608-0.913-0.947-1.345c-0.26-0.333-0.326-0.699-0.352-1.096
	c-0.018-0.291-0.06-0.58-0.092-0.875c0.264-0.016,0.49-0.03,0.694-0.043c0.028-0.121,0.03-0.3,0.079-0.314
	c0.293-0.084,0.608-0.212,0.895-0.171c0.486,0.068,0.41-0.458,0.704-0.561c-0.074-0.173-0.16-0.343-0.22-0.522
	C2.012,16.93,1.47,16.646,1.7,16.067c0.044-0.112-0.098-0.298-0.164-0.477c0.095-0.054,0.265-0.103,0.267-0.159
	c0.007-0.165-0.029-0.463-0.092-0.475c-0.273-0.052-0.4-0.2-0.295-0.426c0.101-0.219,0.237-0.523,0.637-0.292
	c0.06-0.265,0.118-0.516,0.176-0.767c0.005-0.027-0.005-0.076,0.009-0.082c0.624-0.279,0.084-0.688,0.133-1.027
	c0.04-0.288,0.191-0.591,0.379-0.817c0.195-0.237,0.5-0.38,0.742-0.582c0.258-0.217,0.495-0.176,0.755,0.051
	c0.019-0.181,0.034-0.33,0.053-0.5c0.432-0.046,0.861-0.093,1.289-0.14C5.742,9.701,6.144,9.194,6.68,8.777
	c0.072-0.057,0.115-0.151,0.179-0.221C7.061,8.34,7.267,8.127,7.537,7.843c-0.038-0.271,0.19-0.561,0.607-0.595
	c0.436-0.036,0.637,0.197,0.71,0.628C8.955,8.453,9.126,9.02,9.291,9.583c0.111,0.382-0.175,0.583-0.367,0.788
	c-0.094,0.101-0.374,0.045-0.566,0.028c-0.072-0.007-0.161-0.096-0.198-0.17c-0.19-0.373-0.365-0.755-0.501-1.037
	c-0.153,0.387-0.334,0.843-0.546,1.377c0.683-0.519,0.534,0.311,0.797,0.344c0.254-0.106,0.485-0.215,0.727-0.3
	c0.302-0.106,0.558-0.074,0.633,0.406c0.109-0.164,0.205-0.24,0.199-0.309c-0.021-0.257,0.069-0.396,0.308-0.519
	c0.096-0.05,0.075-0.325,0.108-0.5c0.418,0.191,0.518,0.554,0.426,1.005c-0.106,0.046-0.22,0.081-0.314,0.145
	c-0.032,0.023-0.033,0.125-0.013,0.177c0.012,0.031,0.095,0.055,0.142,0.049c0.591-0.069,1.18-0.144,1.901-0.235
	c-0.118,0.253-0.174,0.372-0.221,0.471c0.272,0.277,0.845-0.103,1.06,0.427c0.082-0.024,0.174-0.052,0.261-0.077
	c-0.087-0.374-0.17-0.732-0.254-1.09c0.07-0.025,0.142-0.052,0.212-0.077c0.106,0.196,0.214,0.392,0.36,0.66
	c0.754-0.001,0.404,1.022,1.024,1.283c0.141-0.322-0.485-0.781,0.13-1.067c-0.083-0.306-0.201-0.587,0.264-0.792
	c0.283-0.124,0.446-0.514,0.675-0.775c0.059-0.068,0.152-0.108,0.238-0.145c0.016-0.006,0.1,0.077,0.094,0.102
	c-0.029,0.102-0.082,0.196-0.123,0.289c0.336,0.112,0.408,0.352,0.147,0.649c-0.056,0.063-0.171,0.136-0.161,0.185
	c0.121,0.638-0.404,1.228-0.134,1.876c0.032,0.081,0.034,0.233-0.017,0.28c-0.305,0.275-0.629,0.53-0.998,0.833
	c0.172-0.023,0.398,0.015,0.477-0.076c0.246-0.286,0.436-0.62,0.648-0.935c0.051-0.076,0.111-0.211,0.161-0.208
	c0.09,0.005,0.191,0.078,0.258,0.15c0.061,0.067,0.084,0.171,0.123,0.257c0.056-0.395-0.022-0.481-0.596-0.556
	c0.167-0.744,0.332-1.479,0.497-2.213c0.037,0.008,0.075,0.017,0.113,0.026c0.086,0.229,0.173,0.459,0.263,0.702
	c0.125-0.268,0.194-0.48,0.321-0.649c0.031-0.042,0.248,0.055,0.392,0.091c-0.02-0.103-0.049-0.261-0.086-0.458
	c0.366,0,0.714,0,1.064,0c-0.08-0.727,0.192-1.116,0.862-1.3c0.281-0.077,0.558-0.17,0.831-0.27c0.074-0.027,0.134-0.101,0.19-0.162
	c0.108-0.113,0.207-0.233,0.344-0.387c-0.148-0.503-0.038-0.634,0.62-0.622c0.034,0.081,0.063,0.168,0.104,0.25
	c0.04,0.081,0.091,0.157,0.162,0.134c0.315,0.074,0.703,0.06,0.928,0.244c0.323,0.267,0.314,0.843,0.111,1.186
	c0.276,0.2,0.554,0.264,0.865,0.058c0.079-0.052,0.267-0.084,0.299-0.043c0.236,0.31,0.452,0.074,0.613,0.036
	c0.04-0.269,0.032-0.66,0.113-0.68c0.309-0.075,0.648-0.03,1.008-0.03c-0.279,0.928,0.574,0.649,0.849,0.974
	c-0.028-0.295-0.028-0.478,0.309-0.631c0.269-0.122,0.427-0.486,0.633-0.742c-0.355-0.27-0.352-0.56,0.072-0.88
	c0.283-0.213,0.574-0.418,0.869-0.615c0.113-0.076,0.245-0.122,0.381-0.188c0.027,0.118,0.051,0.218,0.069,0.296
	c0.297-0.068,0.566-0.131,0.74-0.171c0.204-0.336,0.361-0.645,0.571-0.911c0.068-0.087,0.279-0.095,0.42-0.085
	c0.218,0.014,0.431,0.075,0.611,0.109c0.048-0.295,0.04-0.558,0.138-0.773c0.106-0.229,0.309-0.414,0.491-0.646
	c0.087-0.01,0.247-0.028,0.496-0.057C31.33,3.56,31.33,3.56,31.714,2.971c0.03-0.046,0.091-0.112,0.078-0.14
	c-0.241-0.496,0.254-0.588,0.464-0.81c0.258-0.272,0.558-0.518,0.879-0.711c0.294-0.176,0.64-0.266,0.949-0.388
	c0.001,0.005-0.053-0.086-0.031-0.15c0.053-0.154,0.131-0.303,0.218-0.441C34.346,0.212,34.447,0.11,34.537,0
	c0.149,0.143,0.39,0.264,0.428,0.431c0.078,0.349,0.275,0.441,0.658,0.425c-0.319,0.296-0.308,0.763-0.79,0.876
	c-0.112,0.026-0.155,0.346-0.237,0.545c-0.133,0-0.28,0-0.428,0c0.628,0.181,0.861,0.534,0.503,1.046
	c0.439-0.095,0.9-0.194,1.402-0.302c0.009,0.193,0.062,0.339,0.014,0.435c-0.427,0.863,0.021,1.6,0.323,2.355
	c0.094,0.237,0.232,0.423-0.174,0.521c-0.307,0.073-0.279,0.39-0.273,0.648C35.973,7.235,36.01,7.489,36,7.741
	c-0.003,0.096-0.102,0.188-0.154,0.278c0.175,0.234,0.31,0.507,0.525,0.674c0.189,0.147,0.464,0.206,0.711,0.253
	c0.225,0.042,0.306,0.088,0.272,0.352c-0.018,0.155,0.145,0.351,0.263,0.499c0.07,0.088,0.213,0.119,0.332,0.181
	c-0.185,0.477-0.064,0.842,0.226,1.011c0.103,0.355,0.169,0.589,0.239,0.821c0.133,0.448,0.268,0.895,0.393,1.307
	c-0.683-0.384-1.316-0.734-1.944-1.093c-0.737-0.422-1.128-1.063-1.195-1.911c-0.019-0.235-0.064-0.469-0.109-0.701
	c-0.072-0.367-0.165-0.731-0.229-1.099c-0.061-0.35-0.171-0.65-0.5-0.85c-0.145-0.087-0.239-0.253-0.411-0.442
	C34.605,7.545,34.785,8.044,35,8.644c-0.317-0.041-0.489-0.063-0.729-0.094c-0.481,0.387-0.274,1.462,0.43,1.805
	c-0.076,0.194-0.145,0.391-0.229,0.582c-0.087,0.199-0.189,0.392-0.284,0.588c-0.036-0.015-0.072-0.031-0.107-0.046
	c-0.022-0.1-0.042-0.199-0.087-0.413c-0.187,0.246-0.437,0.424-0.426,0.585c0.033,0.473-0.376,0.603-0.59,0.852
	c-0.542,0.629-0.78,0.96-0.533,1.736c0.111,0.349,0.017,0.773-0.025,1.159c-0.044,0.398-0.139,0.79-0.219,1.22
	c0.367-0.049,0.711-0.095,1.073-0.143c-0.053-0.1-0.115-0.217-0.171-0.324c0.381-0.495,0.783-0.167,1.231-0.049
	c-0.025-0.22-0.047-0.415-0.07-0.609c0.139,0,0.276,0,0.414,0c-0.28,0.226-0.361,0.397-0.183,0.7
	c0.441,0.748,0.852,1.513,1.271,2.274c0.039,0.07,0.087,0.166,0.068,0.232c-0.146,0.514,0.138,0.978,0.157,1.461
	c0.031,0.803-0.023,1.61-0.076,2.413c-0.021,0.308-0.578,0.636-0.847,0.58c-0.146,0.17-0.279,0.327-0.4,0.468
	c-0.14-0.395-0.25-0.721-0.372-1.042c-0.118-0.313-0.205-0.607,0.347-0.725c-0.104-0.364-0.198-0.706-0.299-1.045
	c-0.031-0.106-0.092-0.202-0.119-0.309c-0.029-0.113-0.036-0.233-0.053-0.35c-0.125,0.105-0.314,0.187-0.364,0.32
	c-0.243,0.638-0.477,0.706-1.037,0.319c-0.138-0.095-0.401-0.116-0.561-0.052c-0.6,0.241-0.94-0.144-1.314-0.476
	c-0.188-0.167-0.373-0.342-0.573-0.494c-0.161-0.122-0.379-0.333-0.508-0.295c-0.297,0.088-0.567,0.285-0.82,0.477
	c-0.136,0.104-0.212,0.287-0.328,0.452c0.287,0.11,0.426,0.275,0.277,0.593c-0.044,0.094,0.025,0.242,0.049,0.364
	c0.078,0.406,0.051,0.82-0.238,1.11c-0.155,0.155-0.485,0.24-0.71,0.201c-0.592-0.104-0.906,0.239-1.282,0.587
	c-0.456,0.422-0.991,0.595-1.658,0.406c-0.364-0.103-0.796-0.241-1.215,0.036c-0.347,0.229-0.629,0.099-0.821-0.271
	c-0.051-0.098-0.098-0.198-0.094-0.19c-0.391-0.077-0.699-0.137-1.024-0.2c-0.105,0.233-0.271,0.523-0.044,0.864
	c0.013,0.02-0.314,0.383-0.48,0.38c-0.369-0.006-0.78,0.205-1.116-0.234c-0.204-0.267-1.292,0.044-1.535,0.366
	c-0.24,0.319-0.698,0.392-1.045,0.204c-0.135-0.073-0.354-0.011-0.468-0.098c-0.176-0.135-0.275-0.365-0.442-0.517
	c-0.139-0.126-0.323-0.204-0.495-0.291c-0.147-0.074-0.304-0.132-0.456-0.196c-0.049-0.021-0.115-0.069-0.146-0.052
	c-0.42,0.225-0.428-0.107-0.489-0.358c-0.075-0.31-0.101-0.641-0.226-0.929C14.883,21.893,14.66,21.648,14.452,21.344z"/>
</svg>
