<?xml version="1.0" encoding="iso-8859-1"?>
<!-- Generator: Adobe Illustrator 18.1.1, SVG Export Plug-In . SVG Version: 6.00 Build 0)  -->
<svg version="1.1" id="&#x421;&#x43B;&#x43E;&#x439;_1"
	 xmlns="http://www.w3.org/2000/svg" xmlns:xlink="http://www.w3.org/1999/xlink" x="0px" y="0px" viewBox="0 0 14.574 11.451"
	 style="enable-background:new 0 0 14.574 11.451;" xml:space="preserve">
<g>
	<path style="fill:#785CB9;" d="M1.399,3.53c0.184,0.13,0.74,0.516,1.667,1.158c0.927,0.643,1.638,1.138,2.131,1.484
		C5.251,6.21,5.366,6.293,5.542,6.42c0.176,0.128,0.322,0.23,0.439,0.309c0.117,0.079,0.257,0.167,0.423,0.265
		c0.166,0.098,0.321,0.17,0.468,0.219c0.147,0.049,0.282,0.073,0.407,0.073h0.016c0.125,0,0.26-0.024,0.407-0.073
		c0.146-0.049,0.302-0.122,0.467-0.219c0.165-0.098,0.306-0.186,0.423-0.265C8.709,6.651,8.855,6.548,9.031,6.42
		c0.176-0.128,0.292-0.21,0.346-0.248c0.499-0.347,1.768-1.227,3.806-2.643c0.396-0.276,0.726-0.61,0.992-1
		c0.266-0.39,0.399-0.799,0.399-1.228c0-0.358-0.129-0.665-0.387-0.919C13.93,0.127,13.625,0,13.272,0H1.301
		C0.884,0,0.563,0.141,0.337,0.423C0.112,0.705,0,1.057,0,1.48c0,0.342,0.149,0.712,0.447,1.11C0.745,2.989,1.063,3.302,1.399,3.53
		L1.399,3.53z M1.399,3.53"/>
	<path style="fill:#785CB9;" d="M13.76,4.4c-1.778,1.203-3.128,2.139-4.05,2.805C9.402,7.433,9.15,7.611,8.958,7.738
		C8.766,7.866,8.51,7.996,8.19,8.128C7.87,8.261,7.572,8.328,7.295,8.328H7.279c-0.277,0-0.575-0.066-0.895-0.199
		C6.064,7.996,5.808,7.866,5.615,7.738C5.423,7.611,5.172,7.433,4.863,7.205C4.131,6.668,2.784,5.733,0.821,4.4
		C0.512,4.193,0.238,3.957,0,3.692v6.457c0,0.358,0.127,0.665,0.382,0.919c0.255,0.255,0.561,0.382,0.919,0.382h11.971
		c0.358,0,0.665-0.127,0.919-0.382c0.255-0.255,0.382-0.561,0.382-0.919V3.692C14.34,3.952,14.069,4.188,13.76,4.4L13.76,4.4z
		 M13.76,4.4"/>
</g>
</svg>
