<?xml version="1.0" encoding="iso-8859-1"?>
<!-- Generator: Adobe Illustrator 18.1.1, SVG Export Plug-In . SVG Version: 6.00 Build 0)  -->
<svg version="1.1" id="&#x421;&#x43B;&#x43E;&#x439;_1"
	 xmlns="http://www.w3.org/2000/svg" xmlns:xlink="http://www.w3.org/1999/xlink" x="0px" y="0px" viewBox="0 0 15.79 15.79"
	 style="enable-background:new 0 0 15.79 15.79;" xml:space="preserve">
<path style="fill:#A17EDD;" d="M10.403,1.785c-2.38-2.38-6.238-2.38-8.618,0c-2.38,2.379-2.38,6.238,0,8.618
	c2.053,2.053,5.204,2.33,7.56,0.842l4.152,4.152c0.525,0.524,1.375,0.524,1.899,0c0.525-0.525,0.525-1.375,0-1.9l-4.151-4.152
	C12.733,6.989,12.456,3.837,10.403,1.785z M8.723,8.723c-1.452,1.452-3.807,1.452-5.259,0c-1.452-1.452-1.452-3.807,0-5.259
	c1.452-1.452,3.807-1.452,5.259,0C10.176,4.916,10.176,7.271,8.723,8.723z"/>
</svg>
