<?xml version="1.0" encoding="iso-8859-1"?>
<!-- Generator: Adobe Illustrator 18.1.1, SVG Export Plug-In . SVG Version: 6.00 Build 0)  -->
<svg version="1.1" id="&#x421;&#x43B;&#x43E;&#x439;_1"
	 xmlns="http://www.w3.org/2000/svg" xmlns:xlink="http://www.w3.org/1999/xlink" x="0px" y="0px" viewBox="0 0 16.779 18.179"
	 style="enable-background:new 0 0 16.779 18.179;" xml:space="preserve">
<g>
	<path style="fill:#FFB400;" d="M16.245,10.161c0.065,0.24,0.098,0.492,0.098,0.753c0,0.561-0.139,1.085-0.415,1.573
		c0.021,0.153,0.033,0.31,0.033,0.47c0,0.736-0.219,1.384-0.656,1.944v0.055c0.008,0.997-0.304,1.784-0.934,2.359
		c-0.63,0.575-1.455,0.863-2.475,0.863h-1.223c-0.765,0-1.493-0.08-2.185-0.24c-0.692-0.16-1.504-0.401-2.436-0.721
		c-0.845-0.292-1.347-0.438-1.507-0.438H1.398c-0.386,0-0.716-0.136-0.989-0.409C0.137,16.098,0,15.768,0,15.382V8.391
		c0-0.387,0.136-0.716,0.41-0.989c0.273-0.273,0.603-0.41,0.989-0.41h2.993c0.262-0.175,0.761-0.739,1.497-1.693
		c0.43-0.561,0.819-1.023,1.169-1.388c0.138-0.153,0.251-0.386,0.338-0.699c0.088-0.313,0.151-0.621,0.191-0.923
		C7.626,1.987,7.72,1.657,7.866,1.3c0.145-0.356,0.342-0.655,0.59-0.896C8.739,0.135,9.067,0,9.438,0
		c0.612,0,1.162,0.119,1.65,0.355c0.488,0.237,0.86,0.607,1.115,1.109c0.255,0.496,0.383,1.172,0.383,2.032
		c0,0.677-0.176,1.376-0.524,2.097h1.922c0.757,0,1.413,0.277,1.966,0.831c0.553,0.553,0.83,1.205,0.83,1.955
		C16.779,9.028,16.602,9.621,16.245,10.161L16.245,10.161z M2.589,14.191c-0.139-0.138-0.302-0.208-0.492-0.208
		c-0.189,0-0.353,0.069-0.492,0.208c-0.138,0.139-0.207,0.303-0.207,0.492c0,0.189,0.069,0.353,0.207,0.492
		c0.138,0.138,0.303,0.208,0.492,0.208c0.189,0,0.353-0.069,0.492-0.208c0.138-0.138,0.208-0.302,0.208-0.492
		C2.797,14.494,2.728,14.33,2.589,14.191L2.589,14.191z M14.955,7.413c-0.284-0.281-0.608-0.421-0.972-0.421h-3.845
		c0-0.422,0.174-1.003,0.523-1.742c0.35-0.739,0.524-1.324,0.524-1.753c0-0.714-0.116-1.242-0.35-1.584
		c-0.233-0.342-0.698-0.513-1.398-0.513c-0.19,0.189-0.328,0.498-0.416,0.929C8.936,2.757,8.825,3.214,8.69,3.699
		C8.556,4.183,8.339,4.582,8.041,4.895C7.88,5.063,7.6,5.394,7.199,5.889C7.17,5.925,7.086,6.035,6.948,6.217
		C6.81,6.398,6.695,6.548,6.604,6.665C6.513,6.781,6.387,6.936,6.227,7.129c-0.16,0.193-0.306,0.354-0.437,0.48
		C5.659,7.737,5.519,7.866,5.369,7.998C5.22,8.128,5.075,8.227,4.933,8.292C4.791,8.358,4.661,8.39,4.544,8.39H4.195v6.992h0.349
		c0.095,0,0.209,0.011,0.344,0.033c0.135,0.022,0.255,0.046,0.361,0.071c0.106,0.025,0.243,0.065,0.415,0.12
		c0.171,0.055,0.298,0.097,0.382,0.125c0.084,0.029,0.213,0.075,0.388,0.137c0.175,0.061,0.281,0.101,0.316,0.115
		c1.537,0.532,2.782,0.797,3.737,0.797h1.398c0.634,0,1.129-0.149,1.486-0.448c0.357-0.299,0.535-0.757,0.535-1.377
		c0-0.189-0.019-0.393-0.055-0.611c0.219-0.117,0.392-0.308,0.519-0.574c0.128-0.266,0.192-0.533,0.192-0.803
		s-0.065-0.521-0.197-0.754c0.386-0.364,0.579-0.797,0.579-1.3c0-0.182-0.036-0.384-0.109-0.606
		c-0.073-0.223-0.165-0.396-0.273-0.519c0.232-0.007,0.428-0.178,0.584-0.513c0.157-0.335,0.235-0.63,0.235-0.885
		C15.381,8.019,15.24,7.693,14.955,7.413L14.955,7.413z M14.955,7.413"/>
</g>
</svg>
