<?xml version="1.0" encoding="iso-8859-1"?>
<!-- Generator: Adobe Illustrator 18.1.1, SVG Export Plug-In . SVG Version: 6.00 Build 0)  -->
<svg version="1.1" id="&#x421;&#x43B;&#x43E;&#x439;_1"
	 xmlns="http://www.w3.org/2000/svg" xmlns:xlink="http://www.w3.org/1999/xlink" x="0px" y="0px" viewBox="0 0 28.364 24.405"
	 style="enable-background:new 0 0 28.364 24.405;" xml:space="preserve">
<g>
	<path style="fill:#F7CD00;" d="M17.586,13.093c-0.299,0.472-0.606,0.959-0.924,1.434c-0.388,0.579-0.811,1.18-1.269,1.777
		c2.78,3.633,6.272,5.767,11.212,5.517c2.35-0.119,2.361-3.782,0-3.661c-2.629,0.133-5.066-0.388-6.933-2.353
		C18.879,14.973,18.214,14.047,17.586,13.093L17.586,13.093z M17.586,13.093"/>
	<path style="fill:#F7CD00;" d="M12.818,10.179c0.269-0.422,0.546-0.857,0.828-1.286c0.179-0.267,0.357-0.524,0.537-0.776
		c-0.894-1.092-1.899-2.09-3.093-2.866C9.491,4.214,7.761,3.755,5.963,3.627l0.429-0.463c1.597-1.732-0.984-4.326-2.589-2.589
		l-3.295,3.57C-0.291,5.01-0.043,6.088,0.602,6.736c0.99,1.177,1.936,2.391,2.927,3.567c0.643,0.763,1.929,0.66,2.587,0
		c0.751-0.751,0.643-1.826,0-2.589C6.005,7.58,5.896,7.443,5.784,7.31c1.757,0.167,3.358,0.763,4.761,2.212
		c0.557,0.574,1.051,1.192,1.515,1.832C12.314,10.971,12.564,10.578,12.818,10.179L12.818,10.179z M12.818,10.179"/>
</g>
<g>
	<path style="fill:#785CB9;" d="M3.523,14.101c-0.99,1.177-1.937,2.391-2.927,3.567c-0.645,0.648-0.892,1.726-0.094,2.591
		l3.295,3.569c0.374,0.405,0.803,0.576,1.217,0.576c1.364,0,2.598-1.837,1.372-3.164l-0.427-0.463
		c1.796-0.128,3.526-0.587,5.124-1.624c1.477-0.961,2.666-2.256,3.714-3.656c0.368-0.493,0.72-0.997,1.06-1.504
		c0.394-0.59,0.771-1.192,1.151-1.791c0.801-1.264,1.62-2.515,2.658-3.606c1.687-1.774,3.839-2.372,6.178-2.372
		c0.249,0,0.501,0.006,0.754,0.02c0.038,0.002,0.075,0.002,0.113,0.002c2.247,0,2.198-3.545-0.113-3.663
		c-0.263-0.014-0.522-0.02-0.778-0.02c-4.878,0-8.294,2.426-11.024,6.344c-0.119,0.17-0.239,0.34-0.355,0.516
		c-0.608,0.922-1.183,1.865-1.796,2.779c-0.634,0.943-1.307,1.854-2.106,2.678c-1.403,1.451-3.004,2.046-4.761,2.214
		c0.111-0.134,0.219-0.271,0.332-0.403c0.641-0.764,0.75-1.839,0-2.59c-0.341-0.341-0.852-0.535-1.354-0.535
		C4.291,13.566,3.832,13.734,3.523,14.101L3.523,14.101z M3.523,14.101"/>
</g>
</svg>
