<?xml version="1.0" encoding="iso-8859-1"?>
<!-- Generator: Adobe Illustrator 18.1.1, SVG Export Plug-In . SVG Version: 6.00 Build 0)  -->
<svg version="1.1" id="&#x421;&#x43B;&#x43E;&#x439;_1"
	 xmlns="http://www.w3.org/2000/svg" xmlns:xlink="http://www.w3.org/1999/xlink" x="0px" y="0px" viewBox="0 0 25.355 26.079"
	 style="enable-background:new 0 0 25.355 26.079;" xml:space="preserve">
<path style="fill:#B5B5B5;" d="M24.452,5.135l0.002-0.003L13.173,0.063l-0.01,0.022C13.011,0.034,12.851,0,12.682,0
	c-0.172,0-0.334,0.035-0.488,0.087l-0.011-0.024L0.901,5.132l0.002,0.003C0.371,5.376,0,5.908,0,6.529v12.99
	c0,0.621,0.371,1.153,0.903,1.394l-0.002,0.003l11.008,4.946c0.228,0.134,0.489,0.216,0.773,0.216c0.301,0,0.579-0.09,0.815-0.239
	l10.957-4.924l-0.002-0.003c0.532-0.24,0.903-0.772,0.903-1.393V6.529C25.355,5.908,24.984,5.376,24.452,5.135z M23.824,17.987
	v1.531v0.001l-10.377,4.663V12.308l10.377-4.663V8.06V17.987z M1.531,17.988V8.061V7.584l3.444,1.547v2.653l2.598,1.239v-2.725
	l4.343,1.952v11.936L1.531,19.521v-0.002V17.988z M12.706,1.531l2.97,1.334L5.221,7.563L2.224,6.217l10.428-4.686H12.706z
	 M12.745,10.945l-4.362-1.96l10.454-4.698l4.362,1.961L12.745,10.945z"/>
</svg>
