<?xml version="1.0" encoding="iso-8859-1"?>
<!-- Generator: Adobe Illustrator 18.1.1, SVG Export Plug-In . SVG Version: 6.00 Build 0)  -->
<svg version="1.1" id="&#x421;&#x43B;&#x43E;&#x439;_1"
	 xmlns="http://www.w3.org/2000/svg" xmlns:xlink="http://www.w3.org/1999/xlink" x="0px" y="0px" viewBox="0 0 39.967 39.967"
	 style="enable-background:new 0 0 39.967 39.967;" xml:space="preserve">
<path style="fill:#EDE9F7;" d="M33.559,14.297c-0.858-2.049-0.21-4.35,1.438-5.678c-1.087-1.437-2.361-2.687-3.771-3.734
	c-1.316,1.655-3.609,2.32-5.664,1.478c-2.055-0.841-3.223-2.924-3-5.026c-1.739-0.242-3.524-0.246-5.307,0.016
	c0.242,2.102-0.909,4.197-2.959,5.055c-2.049,0.858-4.35,0.21-5.678-1.438C7.182,6.057,5.932,7.331,4.884,8.741
	c1.655,1.315,2.32,3.609,1.478,5.664c-0.842,2.055-2.924,3.223-5.026,3c-0.242,1.74-0.246,3.525,0.017,5.306
	c2.102-0.242,4.196,0.91,5.055,2.959c0.858,2.049,0.21,4.35-1.438,5.678c1.087,1.436,2.361,2.686,3.771,3.734
	c1.315-1.655,3.609-2.32,5.664-1.479c2.055,0.841,3.223,2.925,3,5.027c1.739,0.242,3.525,0.246,5.307-0.017
	c-0.242-2.102,0.909-4.196,2.959-5.055c2.049-0.858,4.35-0.21,5.678,1.438c1.438-1.086,2.687-2.361,3.734-3.771
	c-1.655-1.316-2.32-3.609-1.479-5.664s2.925-3.223,5.026-3c0.242-1.74,0.246-3.525-0.016-5.306
	C36.512,17.498,34.418,16.346,33.559,14.297z M22.728,26.536c-3.618,1.516-7.781-0.189-9.297-3.808s0.189-7.781,3.808-9.297
	c3.618-1.516,7.781,0.189,9.297,3.808C28.051,20.858,26.346,25.02,22.728,26.536z"/>
<path style="fill:#B6A7D6;" d="M23.159,39.68c-0.088,0.037-0.181,0.063-0.279,0.077c-1.858,0.274-3.755,0.28-5.634,0.018
	c-0.618-0.087-1.056-0.646-0.99-1.267c0.174-1.635-0.768-3.212-2.288-3.836c-0.918-0.376-1.929-0.372-2.844,0.012
	c-0.579,0.243-1.09,0.629-1.478,1.117c-0.389,0.488-1.094,0.581-1.594,0.208c-1.523-1.132-2.87-2.466-4.003-3.964
	c-0.377-0.498-0.29-1.205,0.196-1.596c1.281-1.034,1.732-2.815,1.097-4.333c-0.636-1.518-2.222-2.446-3.857-2.258
	C0.865,23.93,0.3,23.497,0.21,22.88c-0.273-1.858-0.279-3.754-0.018-5.634c0.086-0.617,0.646-1.055,1.267-0.989
	c0.62,0.066,1.253-0.028,1.832-0.27c0.916-0.384,1.627-1.101,2.003-2.019c0.623-1.521,0.159-3.299-1.128-4.322
	c-0.488-0.388-0.58-1.093-0.208-1.594c1.132-1.523,2.466-2.87,3.964-4.003c0.498-0.376,1.205-0.29,1.597,0.196
	c1.033,1.282,2.814,1.732,4.332,1.097c1.518-0.635,2.446-2.222,2.258-3.857C16.037,0.865,16.47,0.3,17.087,0.21
	c1.858-0.273,3.754-0.279,5.634-0.017c0.618,0.086,1.056,0.646,0.99,1.266c-0.174,1.635,0.767,3.212,2.289,3.835
	c0.918,0.377,1.928,0.372,2.843-0.011c0.579-0.243,1.09-0.629,1.479-1.117c0.388-0.488,1.093-0.58,1.594-0.208
	c1.523,1.133,2.87,2.466,4.002,3.965c0.377,0.498,0.29,1.204-0.196,1.596c-1.281,1.033-1.732,2.815-1.097,4.333
	c0.636,1.517,2.222,2.446,3.858,2.257c0.62-0.071,1.184,0.362,1.275,0.979c0.273,1.858,0.28,3.754,0.018,5.634
	c-0.086,0.618-0.646,1.055-1.266,0.99c-0.621-0.066-1.255,0.027-1.833,0.27c-0.916,0.383-1.627,1.1-2.003,2.019
	c-0.623,1.521-0.159,3.298,1.128,4.321c0.488,0.388,0.58,1.093,0.209,1.594c-1.133,1.523-2.467,2.87-3.965,4.003
	c-0.497,0.376-1.205,0.29-1.597-0.196c-1.033-1.281-2.814-1.733-4.332-1.097c-1.518,0.636-2.446,2.222-2.258,3.857
	C23.92,39.004,23.622,39.486,23.159,39.68z M18.564,37.597c0.995,0.082,1.991,0.079,2.979-0.008
	c0.177-2.215,1.581-4.216,3.681-5.095c2.099-0.879,4.51-0.476,6.213,0.951c0.755-0.643,1.456-1.352,2.096-2.118
	c-1.438-1.691-1.86-4.098-0.998-6.203c0.61-1.489,1.764-2.652,3.249-3.274c0.578-0.243,1.191-0.393,1.813-0.447
	c0.081-0.995,0.079-1.992-0.009-2.979c-2.215-0.177-4.216-1.581-5.095-3.681c-0.88-2.099-0.477-4.51,0.95-6.213
	c-0.643-0.755-1.351-1.456-2.117-2.096c-0.475,0.405-1.012,0.736-1.59,0.979c-1.485,0.622-3.123,0.628-4.612,0.019
	C23.02,6.57,21.6,4.582,21.404,2.37c-0.996-0.082-1.992-0.079-2.98,0.008c-0.177,2.215-1.581,4.216-3.68,5.096
	c-2.1,0.879-4.511,0.476-6.214-0.951C7.775,7.166,7.074,7.874,6.434,8.64c1.438,1.691,1.86,4.098,0.998,6.203
	c-0.61,1.49-1.764,2.652-3.248,3.274C3.605,18.36,2.992,18.51,2.37,18.565c-0.081,0.995-0.078,1.991,0.009,2.978
	c2.215,0.177,4.216,1.582,5.095,3.681c0.88,2.1,0.477,4.51-0.951,6.213c0.644,0.755,1.352,1.456,2.118,2.095
	c0.474-0.405,1.012-0.736,1.59-0.979c1.485-0.622,3.123-0.628,4.613-0.019C16.948,33.397,18.368,35.385,18.564,37.597z
	 M23.174,27.601c-4.2,1.76-9.049-0.226-10.808-4.427c-1.76-4.2,0.226-9.049,4.427-10.809c4.2-1.76,9.049,0.227,10.809,4.427
	C29.361,20.993,27.375,25.842,23.174,27.601z M17.685,14.497c-3.024,1.267-4.455,4.759-3.189,7.785
	c1.268,3.025,4.76,4.455,7.785,3.188c3.025-1.267,4.455-4.759,3.188-7.784C24.203,14.66,20.711,13.23,17.685,14.497z"/>
</svg>
