<?xml version="1.0" encoding="iso-8859-1"?>
<!-- Generator: Adobe Illustrator 18.1.1, SVG Export Plug-In . SVG Version: 6.00 Build 0)  -->
<svg version="1.1" id="&#x421;&#x43B;&#x43E;&#x439;_1"
	 xmlns="http://www.w3.org/2000/svg" xmlns:xlink="http://www.w3.org/1999/xlink" x="0px" y="0px" viewBox="0 0 14.416 14.756"
	 style="enable-background:new 0 0 14.416 14.756;" xml:space="preserve">
<path style="fill:#7F7F7F;" d="M0.147,13.935c-0.133-0.133-0.185-0.335-0.116-0.523l1.591-4.419
	c0.024-0.069,0.064-0.132,0.116-0.185L10.4,0.147c0.195-0.196,0.512-0.196,0.707,0l1.944,1.944c0.196,0.195,0.196,0.512,0,0.707
	c-0.195,0.195-0.512,0.195-0.707,0l-1.591-1.591L2.524,9.437L0.97,13.751c-0.093,0.26-0.379,0.395-0.64,0.301
	C0.26,14.027,0.198,13.986,0.147,13.935z"/>
<g>
	<path style="fill:#7F7F7F;" d="M13.935,3.682c0.196-0.195,0.196-0.512,0-0.707l-1.944-1.944c-0.195-0.195-0.512-0.195-0.707,0
		l-0.53-0.53L8.19,3.063l2.476,2.475l-5.746,5.746L2.445,8.808c-0.195-0.195-0.512-0.195-0.707,0c-0.195,0.196-0.195,0.512,0,0.708
		l2.272,2.271l-3.678,1.324c-0.261,0.093-0.395,0.38-0.302,0.64c0.025,0.071,0.066,0.133,0.117,0.184
		c0.072,0.072,0.165,0.114,0.265,0.132v0.689H4.38v-0.969H1.405l3.685-1.327c0.003-0.001,0.005-0.004,0.008-0.005
		c0.063-0.024,0.124-0.06,0.176-0.112L13.935,3.682z"/>
	<rect x="5.42" y="13.787" style="fill:#7F7F7F;" width="3.969" height="0.969"/>
	<rect x="10.447" y="13.787" style="fill:#7F7F7F;" width="3.969" height="0.969"/>
</g>
</svg>
