<?xml version="1.0" encoding="iso-8859-1"?>
<!-- Generator: Adobe Illustrator 18.1.1, SVG Export Plug-In . SVG Version: 6.00 Build 0)  -->
<svg version="1.1" id="&#x421;&#x43B;&#x43E;&#x439;_1"
	 xmlns="http://www.w3.org/2000/svg" xmlns:xlink="http://www.w3.org/1999/xlink" x="0px" y="0px" viewBox="0 0 14.416 14.756"
	 style="enable-background:new 0 0 14.416 14.756;" xml:space="preserve">
<g>
	<path style="fill:#7F7F7F;" d="M13.93,2.975l-0.884-0.884c0,0,0,0,0,0l-1.944-1.944c-0.195-0.196-0.512-0.196-0.707,0L1.733,8.808
		C1.681,8.861,1.645,8.922,1.621,8.987C1.62,8.989,1.618,8.991,1.617,8.993l-1.591,4.419c-0.004,0.01,0.001,0.02-0.002,0.031
		c-0.02,0.069-0.024,0.14-0.013,0.214c0.003,0.02,0.003,0.038,0.008,0.057c0.003,0.012,0.001,0.025,0.005,0.037
		c0.025,0.071,0.066,0.133,0.117,0.184c0.051,0.05,0.113,0.091,0.184,0.117c0.024,0.009,0.048,0.006,0.072,0.011
		c0.003,0.001,0.006,0.004,0.009,0.005v0.689h3.969v-0.969H1.4l3.685-1.327c0.003-0.001,0.005-0.004,0.008-0.005
		c0.063-0.024,0.124-0.06,0.176-0.112l8.662-8.662C14.126,3.487,14.126,3.17,13.93,2.975z M1.325,12.752l0.965-2.679l1.714,1.714
		L1.325,12.752z M4.915,11.284L2.794,9.162l5.745-5.745l2.122,2.121L4.915,11.284z"/>
	<rect x="5.416" y="13.787" style="fill:#7F7F7F;" width="3.969" height="0.969"/>
	<rect x="10.442" y="13.787" style="fill:#7F7F7F;" width="3.969" height="0.969"/>
</g>
</svg>
