<?xml version="1.0" encoding="iso-8859-1"?>
<!-- Generator: Adobe Illustrator 18.1.1, SVG Export Plug-In . SVG Version: 6.00 Build 0)  -->
<svg version="1.1" id="&#x421;&#x43B;&#x43E;&#x439;_1"
	 xmlns="http://www.w3.org/2000/svg" xmlns:xlink="http://www.w3.org/1999/xlink" x="0px" y="0px" viewBox="0 0 20.313 30.408"
	 style="enable-background:new 0 0 20.313 30.408;" xml:space="preserve">
<g>
	<g>
		<ellipse style="fill:#785CB9;" cx="10.156" cy="9.649" rx="4.155" ry="3.948"/>
		<path style="fill:#785CB9;" d="M20.313,9.649C20.313,4.32,15.766,0,10.156,0C4.547,0,0,4.32,0,9.649s4.547,9.649,10.156,9.649
			c0.104,0,0.207-0.004,0.311-0.007l-0.004,0.003L6.528,30.408h1.014c0,0,9.779-11.808,11.884-16.81l-0.004,0.001
			C19.993,12.393,20.313,11.057,20.313,9.649z M10.156,16.91c-4.221,0-7.642-3.25-7.642-7.261s3.421-7.261,7.642-7.261
			s7.642,3.25,7.642,7.261S14.377,16.91,10.156,16.91z"/>
	</g>
</g>
</svg>
