<?xml version="1.0" encoding="iso-8859-1"?>
<!-- Generator: Adobe Illustrator 18.1.1, SVG Export Plug-In . SVG Version: 6.00 Build 0)  -->
<svg version="1.1" id="&#x421;&#x43B;&#x43E;&#x439;_1"
	 xmlns="http://www.w3.org/2000/svg" xmlns:xlink="http://www.w3.org/1999/xlink" x="0px" y="0px" viewBox="0 0 11.394 10.36"
	 style="enable-background:new 0 0 11.394 10.36;" xml:space="preserve">
<g>
	<path style="fill:#898989;" d="M3.852,4.872H2.929c-0.146,0-0.265,0.118-0.265,0.264v0.922c0,0.147,0.118,0.265,0.265,0.265h0.923
		c0.146,0,0.265-0.119,0.265-0.265V5.136C4.116,4.99,3.998,4.872,3.852,4.872z"/>
	<path style="fill:#898989;" d="M6.158,4.872H5.235c-0.147,0-0.265,0.118-0.265,0.264v0.922c0,0.147,0.118,0.265,0.265,0.265h0.923
		c0.146,0,0.265-0.119,0.265-0.265V5.136C6.423,4.99,6.304,4.872,6.158,4.872z"/>
	<path style="fill:#898989;" d="M8.465,4.872H7.542c-0.145,0-0.265,0.118-0.265,0.264v0.922c0,0.147,0.119,0.265,0.265,0.265h0.923
		c0.146,0,0.265-0.119,0.265-0.265V5.136C8.73,4.99,8.61,4.872,8.465,4.872z"/>
	<path style="fill:#898989;" d="M3.852,7.179H2.929c-0.146,0-0.265,0.118-0.265,0.264v0.923c0,0.146,0.118,0.264,0.265,0.264h0.923
		c0.146,0,0.265-0.118,0.265-0.264V7.443C4.116,7.297,3.998,7.179,3.852,7.179z"/>
	<path style="fill:#898989;" d="M6.158,7.179H5.235c-0.147,0-0.265,0.118-0.265,0.264v0.923c0,0.146,0.118,0.264,0.265,0.264h0.923
		c0.146,0,0.265-0.118,0.265-0.264V7.443C6.423,7.297,6.304,7.179,6.158,7.179z"/>
	<path style="fill:#898989;" d="M8.465,7.179H7.542c-0.145,0-0.265,0.118-0.265,0.264v0.923c0,0.146,0.119,0.264,0.265,0.264h0.923
		c0.146,0,0.265-0.118,0.265-0.264V7.443C8.73,7.297,8.61,7.179,8.465,7.179z"/>
	<path style="fill:#898989;" d="M10.379,0.005h-0.007H9.943H7.337V0h-3.28v0.005H1.014C0.457,0.022,0,0.483,0,1.049v8.26
		c0,0.577,0.467,1.051,1.044,1.051h9.306c0.575,0,1.044-0.475,1.044-1.051v-8.26C11.394,0.483,10.936,0.022,10.379,0.005z
		 M10.041,8.795c0,0.25-0.202,0.452-0.451,0.452H1.783c-0.249,0-0.451-0.202-0.451-0.452V4.528c0-0.25,0.202-0.452,0.451-0.452H9.59
		c0.249,0,0.451,0.202,0.451,0.452V8.795z"/>
</g>
</svg>
