<?xml version="1.0" encoding="iso-8859-1"?>
<!-- Generator: Adobe Illustrator 18.1.1, SVG Export Plug-In . SVG Version: 6.00 Build 0)  -->
<svg version="1.1" id="&#x421;&#x43B;&#x43E;&#x439;_1"
	 xmlns="http://www.w3.org/2000/svg" xmlns:xlink="http://www.w3.org/1999/xlink" x="0px" y="0px" viewBox="0 0 53 25"
	 style="enable-background:new 0 0 53 25;" xml:space="preserve">
<linearGradient id="SVGID_2_" gradientUnits="userSpaceOnUse" x1="2.7012" y1="14.034" x2="49.9512" y2="14.034">
	<stop  offset="0" style="stop-color:#919191"/>
	<stop  offset="1" style="stop-color:#DBDBDB"/>
</linearGradient>
<path style="fill:url(#SVGID_2_);" d="M12.034,3.784L12.034,3.784L3.106,13.04v0.027c-0.244,0.232-0.405,0.563-0.405,0.943
	c0,0.38,0.161,0.71,0.405,0.943v0.027l8.928,9.255v0.049h37.917v-20.5H12.034z M6.556,15.315c-0.652,0-1.18-0.574-1.18-1.281
	c0-0.708,0.528-1.281,1.18-1.281c0.652,0,1.18,0.574,1.18,1.281C7.736,14.742,7.207,15.315,6.556,15.315z"/>
<path style="fill:#FF3837;" d="M10.213,3.578L10.213,3.578l-9.002,9.928l0.002,0.027c-0.247,0.251-0.398,0.593-0.371,0.972
	c0.027,0.379,0.226,0.696,0.506,0.908l0.002,0.027l10.333,8.535l0.004,0.049l41.06-2.959L51.273,0.619L10.213,3.578z M5.109,15.507
	c-0.706,0.051-1.319-0.48-1.37-1.186c-0.051-0.706,0.48-1.319,1.186-1.37c0.706-0.051,1.319,0.48,1.37,1.186
	C6.346,14.843,5.815,15.456,5.109,15.507z"/>
<g>
	<path style="fill:#FFFFFF;" d="M15.168,7.04l6.707-0.483l0.125,1.742l-4.587,0.331l0.231,3.208l4.277-0.308l0.125,1.741
		l-4.277,0.308l0.356,4.931l-2.121,0.153L15.168,7.04z"/>
	<path style="fill:#FFFFFF;" d="M23.907,12.373c-0.082-1.138-0.157-1.947-0.263-2.702l1.845-0.133l0.185,1.598l0.068-0.005
		c0.328-1.22,1.267-1.894,2.165-1.958c0.207-0.015,0.329-0.006,0.503,0.016l0.144,2.001c-0.175-0.023-0.366-0.043-0.625-0.024
		c-1.017,0.073-1.66,0.778-1.781,1.74c-0.021,0.192-0.039,0.419-0.022,0.661l0.313,4.345l-2.122,0.153L23.907,12.373z"/>
	<path style="fill:#FFFFFF;" d="M31.543,13.92c0.161,1.514,1.397,2.084,2.743,1.987c0.983-0.071,1.68-0.26,2.301-0.548l0.416,1.443
		c-0.704,0.345-1.688,0.642-2.895,0.729c-2.724,0.196-4.448-1.361-4.633-3.93c-0.168-2.328,1.088-4.619,3.778-4.813
		c2.724-0.196,3.783,1.98,3.916,3.825c0.029,0.397,0.016,0.71-0.004,0.902L31.543,13.92z M35.126,12.171
		c-0.038-0.778-0.475-2.029-1.889-1.927c-1.31,0.094-1.777,1.323-1.8,2.193L35.126,12.171z"/>
	<path style="fill:#FFFFFF;" d="M40.441,13.279c0.161,1.514,1.398,2.084,2.743,1.987c0.983-0.071,1.68-0.26,2.3-0.548l0.416,1.443
		c-0.704,0.345-1.688,0.642-2.895,0.729c-2.724,0.196-4.448-1.361-4.633-3.93c-0.168-2.328,1.088-4.619,3.778-4.813
		c2.724-0.196,3.783,1.98,3.916,3.825c0.029,0.397,0.016,0.71-0.004,0.902L40.441,13.279z M44.024,11.53
		c-0.038-0.778-0.475-2.029-1.889-1.927c-1.31,0.094-1.777,1.324-1.8,2.193L44.024,11.53z"/>
</g>
</svg>
