<?xml version="1.0" encoding="iso-8859-1"?>
<!-- Generator: Adobe Illustrator 18.1.1, SVG Export Plug-In . SVG Version: 6.00 Build 0)  -->
<svg version="1.1" id="&#x421;&#x43B;&#x43E;&#x439;_1"
	 xmlns="http://www.w3.org/2000/svg" xmlns:xlink="http://www.w3.org/1999/xlink" x="0px" y="0px" viewBox="0 0 35.105 21.667"
	 style="enable-background:new 0 0 35.105 21.667;" xml:space="preserve">
<g>
	<circle style="fill:#B5B5B5;" cx="6.655" cy="18.615" r="3.052"/>
	<circle style="fill:#B5B5B5;" cx="26.468" cy="18.615" r="3.052"/>
	<rect x="11.729" y="16.75" style="fill:#B5B5B5;" width="9.761" height="1.531"/>
	<path style="fill:#B5B5B5;" d="M35.076,10.833l-4.418-4.941C30.415,5.367,29.888,5,29.271,5h-6.25V1.531
		C23.021,0.686,22.335,0,21.489,0H1.531C0.686,0,0,0.686,0,1.531v14.75c0,0.846,0.686,1.531,1.531,1.531v-1.531V14.75V3.062V1.531
		h1.531h16.895h1.531v13.011h1.531V6.531h2.458v3.537v1.531v0.026h1.531v-0.026h6.563v5.151h-1.531h-0.396v1.531h1.928
		c0.846,0,1.531-0.686,1.531-1.531v-5.917H35.076z M27.01,6.531h0.729h1.436l3.163,3.537H27.01V6.531z"/>
</g>
</svg>
