<?xml version="1.0" encoding="iso-8859-1"?>
<!-- Generator: Adobe Illustrator 18.1.1, SVG Export Plug-In . SVG Version: 6.00 Build 0)  -->
<svg version="1.1" id="&#x421;&#x43B;&#x43E;&#x439;_1"
	 xmlns="http://www.w3.org/2000/svg" xmlns:xlink="http://www.w3.org/1999/xlink" x="0px" y="0px" viewBox="0 0 33.247 26.079"
	 style="enable-background:new 0 0 33.247 26.079;" xml:space="preserve">
<g>
	<path style="fill:#B5B5B5;" d="M17.386,22.413l-3.938,1.77V12.308l10.377-4.663V8.06v6.977l1.531-1.719V6.529
		c0-0.621-0.371-1.153-0.902-1.394l0.001-0.003L13.173,0.062l-0.01,0.022C13.011,0.034,12.851,0,12.682,0
		c-0.172,0-0.334,0.035-0.488,0.087l-0.011-0.024L0.901,5.132l0.001,0.003C0.371,5.376,0,5.908,0,6.529v12.99
		c0,0.621,0.371,1.153,0.902,1.394l-0.001,0.003l11.008,4.946c0.227,0.134,0.489,0.216,0.772,0.216c0.301,0,0.579-0.09,0.815-0.239
		l4.962-2.23L17.386,22.413z M12.65,1.531h0.055l2.971,1.334L5.221,7.563L2.224,6.217L12.65,1.531z M11.916,24.187L1.531,19.52
		v-0.002v-1.531V8.06V7.584l3.444,1.547v2.653l2.598,1.239v-2.725l4.343,1.952V24.187z M8.383,8.984l10.454-4.698l4.362,1.961
		l-10.454,4.698L8.383,8.984z"/>
</g>
<path style="fill:#00D334;" d="M32.756,11.729c-0.605-0.539-1.534-0.486-2.074,0.119l-7.371,8.275l-3.924-4.373
	c-0.54-0.605-1.469-0.658-2.074-0.119c-0.605,0.54-0.659,1.469-0.119,2.075l5.025,5.601c0.018,0.02,0.044,0.028,0.063,0.047
	c0.023,0.022,0.031,0.051,0.055,0.072c0.058,0.051,0.128,0.071,0.191,0.111c0.078,0.052,0.152,0.105,0.238,0.14
	c0.091,0.037,0.183,0.053,0.277,0.07c0.092,0.018,0.179,0.037,0.271,0.037c0.094,0,0.182-0.019,0.273-0.037
	c0.095-0.018,0.186-0.034,0.276-0.07c0.086-0.035,0.16-0.088,0.24-0.14c0.063-0.041,0.133-0.061,0.19-0.111
	c0.023-0.021,0.032-0.05,0.054-0.072c0.02-0.02,0.045-0.027,0.063-0.047l8.464-9.503C33.415,13.198,33.361,12.269,32.756,11.729z"/>
</svg>
