<?xml version="1.0" encoding="iso-8859-1"?>
<!-- Generator: Adobe Illustrator 18.1.1, SVG Export Plug-In . SVG Version: 6.00 Build 0)  -->
<svg version="1.1" id="&#x421;&#x43B;&#x43E;&#x439;_1"
	 xmlns="http://www.w3.org/2000/svg" xmlns:xlink="http://www.w3.org/1999/xlink" x="0px" y="0px" viewBox="0 0 13.3 14.849"
	 style="enable-background:new 0 0 13.3 14.849;" xml:space="preserve">
<g>
	<g>
		<path style="fill:#785CB9;" d="M13.094,13.703l-1.22,0.809c-0.788,0.539-4.141,1.148-8.699-4.375
			C-1.219,4.82,0.039,1.871,0.629,1.191l1.016-1.054c0.238-0.203,0.597-0.18,0.804,0.066l2.668,3.156v0.004
			c0.195,0.231,0.192,0.59-0.066,0.805v0.004L3.867,5.024C3.398,5.488,3.809,6.219,4.285,6.926l2.277,2.683
			c1.059,1.024,1.637,1.497,2.141,1.157l0.985-1.094c0.242-0.203,0.601-0.18,0.804,0.066l2.672,3.157
			C13.359,13.129,13.352,13.484,13.094,13.703L13.094,13.703z M13.094,13.703"/>
	</g>
</g>
</svg>
