<?xml version="1.0" encoding="iso-8859-1"?>
<!-- Generator: Adobe Illustrator 18.1.1, SVG Export Plug-In . SVG Version: 6.00 Build 0)  -->
<svg version="1.1" id="&#x421;&#x43B;&#x43E;&#x439;_1"
	 xmlns="http://www.w3.org/2000/svg" xmlns:xlink="http://www.w3.org/1999/xlink" x="0px" y="0px" viewBox="0 0 109 109"
	 style="enable-background:new 0 0 109 109;" xml:space="preserve">
<path style="fill:none;stroke:#EFEAF9;stroke-width:5;stroke-miterlimit:10;" d="M91.996,38.665
	c-2.369-5.572-0.897-11.785,3.188-15.775c-2.847-3.639-6.121-6.83-9.74-9.528c-3.914,4.146-10.09,5.724-15.698,3.462
	c-5.594-2.256-8.947-7.659-8.905-13.346c-4.475-0.554-9.044-0.51-13.613,0.147c0.14,5.678-3.113,11.131-8.658,13.488
	c-5.545,2.357-11.728,0.916-15.72-3.124c-3.644,2.834-6.845,6.094-9.551,9.701c4.125,3.915,5.689,10.079,3.432,15.673
	c-2.262,5.607-7.683,8.96-13.385,8.902c-0.568,4.478-0.542,9.05,0.103,13.625c5.708-0.174,11.203,3.077,13.572,8.649
	c2.377,5.591,0.885,11.824-3.233,15.812c2.835,3.656,6.096,6.869,9.707,9.584c3.909-4.212,10.128-5.834,15.774-3.556
	c5.659,2.283,9.013,7.785,8.889,13.545c4.487,0.565,9.069,0.532,13.652-0.121c-0.233-5.758,3.017-11.325,8.635-13.713
	c5.618-2.388,11.881-0.866,15.866,3.297c3.65-2.847,6.853-6.123,9.56-9.747c-4.234-3.907-5.87-10.14-3.587-15.799
	c2.278-5.647,7.761-9,13.506-8.892c0.551-4.485,0.5-9.063-0.166-13.64C99.897,47.506,94.373,44.256,91.996,38.665z M62.638,73.724
	c-10.501,4.465-22.633-0.429-27.098-10.931C31.076,52.292,35.97,40.16,46.471,35.695c10.501-4.465,22.633,0.429,27.098,10.931
	C78.033,57.127,73.139,69.26,62.638,73.724z"/>
</svg>
