<?xml version="1.0" encoding="iso-8859-1"?>
<!-- Generator: Adobe Illustrator 18.1.1, SVG Export Plug-In . SVG Version: 6.00 Build 0)  -->
<svg version="1.1" id="&#x421;&#x43B;&#x43E;&#x439;_1"
	 xmlns="http://www.w3.org/2000/svg" xmlns:xlink="http://www.w3.org/1999/xlink" x="0px" y="0px" viewBox="0 0 27 16"
	 style="enable-background:new 0 0 27 16;" xml:space="preserve">
<g>
	<path style="fill:#949494;" d="M7.452,15.286H3.54V4.005H0.004V0.807h10.974v3.199H7.452V15.286z"/>
	<path style="fill:#949494;" d="M26.595,8.026c0,2.436-0.597,4.288-1.792,5.556c-1.195,1.268-2.945,1.902-5.249,1.902
		c-2.271,0-4.013-0.637-5.224-1.912c-1.211-1.274-1.817-3.129-1.817-5.566c0-2.41,0.603-4.25,1.808-5.521s2.956-1.907,5.254-1.907
		c2.304,0,4.051,0.631,5.239,1.892C26.001,3.731,26.595,5.583,26.595,8.026z M16.632,8.026c0,2.799,0.974,4.199,2.921,4.199
		c0.991,0,1.725-0.34,2.204-1.02c0.479-0.68,0.718-1.74,0.718-3.179c0-1.446-0.243-2.514-0.728-3.204s-1.21-1.035-2.174-1.035
		C17.613,3.787,16.632,5.201,16.632,8.026z"/>
</g>
</svg>
