<?xml version="1.0" encoding="iso-8859-1"?>
<!-- Generator: Adobe Illustrator 18.1.1, SVG Export Plug-In . SVG Version: 6.00 Build 0)  -->
<svg version="1.1" id="&#x421;&#x43B;&#x43E;&#x439;_1"
	 xmlns="http://www.w3.org/2000/svg" xmlns:xlink="http://www.w3.org/1999/xlink" x="0px" y="0px" viewBox="0 0 49.348 49.534"
	 style="enable-background:new 0 0 49.348 49.534;" xml:space="preserve">
<path style="fill:#EDE9F7;" d="M36.713,46.388c1.017,0.417,1.594,1.447,1.482,2.487c0.881,0.123,1.765,0.114,2.622-0.013
	c-0.118-1.038,0.451-2.072,1.464-2.496c1.012-0.424,2.148-0.104,2.805,0.708c0.693-0.523,1.318-1.146,1.85-1.86
	c-0.819-0.65-1.149-1.785-0.733-2.801c0.416-1.016,1.447-1.594,2.487-1.482c0.123-0.882,0.114-1.764-0.013-2.623
	c-1.038,0.119-2.072-0.451-2.496-1.463c-0.425-1.012-0.104-2.148,0.708-2.805c-0.523-0.692-1.146-1.318-1.86-1.849
	c-0.649,0.819-1.784,1.148-2.801,0.732c-1.017-0.416-1.594-1.447-1.482-2.487c-0.882-0.122-1.764-0.114-2.623,0.013
	c0.119,1.038-0.45,2.072-1.463,2.496c-1.012,0.424-2.148,0.104-2.805-0.708c-0.693,0.523-1.318,1.146-1.85,1.86
	c0.819,0.65,1.149,1.785,0.733,2.801c-0.417,1.016-1.447,1.594-2.487,1.482c-0.123,0.882-0.113,1.764,0.013,2.623
	c1.038-0.119,2.072,0.451,2.496,1.463c0.425,1.012,0.104,2.148-0.708,2.805c0.524,0.693,1.146,1.318,1.86,1.849
	C34.563,46.302,35.697,45.972,36.713,46.388z M36.221,38.325c0.735-1.794,2.785-2.653,4.58-1.918
	c1.795,0.735,2.653,2.786,1.919,4.58c-0.735,1.794-2.786,2.653-4.58,1.918C36.345,42.17,35.487,40.12,36.221,38.325z"/>
<path style="fill:#B6A7D6;" d="M31.477,33.882c0.018-0.043,0.041-0.085,0.07-0.125c0.554-0.745,1.215-1.41,1.963-1.975
	c0.246-0.186,0.595-0.143,0.788,0.097c0.512,0.632,1.392,0.854,2.141,0.541c0.453-0.19,0.805-0.544,0.99-0.998
	c0.117-0.287,0.161-0.601,0.126-0.907c-0.035-0.306,0.18-0.585,0.484-0.63c0.928-0.137,1.865-0.141,2.785-0.013
	c0.305,0.043,0.522,0.32,0.489,0.626c-0.087,0.809,0.378,1.59,1.131,1.898c0.752,0.309,1.631,0.079,2.137-0.559
	c0.191-0.242,0.54-0.288,0.788-0.104c0.745,0.554,1.409,1.215,1.976,1.963c0.186,0.246,0.143,0.595-0.097,0.789
	c-0.24,0.193-0.429,0.448-0.547,0.735c-0.186,0.454-0.184,0.953,0.006,1.405c0.314,0.75,1.098,1.208,1.904,1.116
	c0.307-0.035,0.585,0.179,0.63,0.484c0.138,0.928,0.142,1.865,0.014,2.785c-0.042,0.305-0.319,0.522-0.626,0.489
	c-0.81-0.087-1.59,0.378-1.899,1.131c-0.308,0.752-0.077,1.631,0.56,2.137c0.241,0.192,0.288,0.541,0.104,0.789
	c-0.555,0.745-1.215,1.41-1.963,1.976c-0.246,0.186-0.595,0.143-0.789-0.097c-0.511-0.632-1.391-0.854-2.141-0.541
	c-0.452,0.189-0.804,0.544-0.989,0.998c-0.117,0.287-0.161,0.6-0.126,0.907c0.034,0.306-0.18,0.585-0.484,0.63
	c-0.929,0.137-1.865,0.141-2.785,0.013c-0.305-0.042-0.522-0.32-0.489-0.626c0.087-0.809-0.378-1.589-1.131-1.897
	c-0.753-0.308-1.631-0.079-2.137,0.559c-0.191,0.241-0.541,0.287-0.788,0.103c-0.745-0.553-1.41-1.214-1.976-1.962
	c-0.186-0.246-0.144-0.595,0.097-0.789c0.24-0.194,0.429-0.448,0.547-0.735c0.186-0.454,0.184-0.953-0.006-1.405
	c-0.314-0.75-1.098-1.208-1.905-1.116c-0.306,0.035-0.585-0.179-0.629-0.484c-0.138-0.928-0.143-1.865-0.014-2.785
	c0.042-0.306,0.319-0.522,0.626-0.49c0.809,0.087,1.59-0.378,1.898-1.13c0.308-0.753,0.077-1.632-0.56-2.137
	C31.448,34.384,31.382,34.111,31.477,33.882z M33.811,33.004c-0.377,0.319-0.725,0.668-1.039,1.044
	c0.713,0.837,0.921,2.026,0.495,3.067c-0.427,1.041-1.41,1.743-2.504,1.839c-0.04,0.489-0.037,0.981,0.007,1.473
	c1.095,0.088,2.083,0.782,2.517,1.819c0.308,0.734,0.311,1.543,0.01,2.28c-0.117,0.287-0.279,0.554-0.478,0.79
	c0.319,0.377,0.668,0.724,1.044,1.039c0.836-0.712,2.026-0.921,3.067-0.495c1.04,0.426,1.742,1.41,1.839,2.504
	c0.488,0.039,0.98,0.037,1.473-0.008c0.024-0.307,0.097-0.611,0.214-0.898c0.302-0.736,0.871-1.311,1.605-1.618
	c1.036-0.435,2.228-0.236,3.069,0.468c0.376-0.319,0.724-0.669,1.038-1.044c-0.712-0.836-0.921-2.026-0.494-3.067
	c0.427-1.041,1.41-1.743,2.504-1.839c0.039-0.489,0.037-0.981-0.008-1.473c-1.094-0.088-2.082-0.782-2.517-1.819
	c-0.307-0.734-0.311-1.543-0.009-2.28c0.118-0.287,0.279-0.554,0.478-0.79c-0.319-0.376-0.668-0.724-1.044-1.039
	c-0.836,0.712-2.026,0.921-3.067,0.495c-1.041-0.427-1.742-1.41-1.839-2.505c-0.488-0.038-0.98-0.036-1.473,0.008
	c-0.024,0.307-0.096,0.611-0.214,0.898c-0.302,0.736-0.871,1.312-1.605,1.619C35.844,33.907,34.653,33.708,33.811,33.004z
	 M35.693,38.109c0.854-2.083,3.242-3.083,5.325-2.23s3.084,3.242,2.23,5.325c-0.854,2.082-3.242,3.083-5.325,2.23
	C35.84,42.581,34.84,40.191,35.693,38.109z M42.192,40.771c0.614-1.5-0.107-3.221-1.607-3.835c-1.501-0.614-3.221,0.106-3.835,1.607
	c-0.615,1.5,0.105,3.22,1.605,3.834C39.857,42.991,41.577,42.271,42.192,40.771z"/>
<path style="fill:#FDF5BF;" d="M28.238,40.83L17.042,29.634c0,0-1.327-4.059,3.602-8.99c4.931-4.93,8.99-3.603,8.99-3.603
	L40.83,28.238c1.392-4.055-2.995-17.641-9.29-21.273C25.246,3.335,17.5,8.055,17.5,8.055L10.6,1.155L5.877,5.878l-4.723,4.723
	L8.054,17.5c0,0-4.72,7.746-1.089,14.04C10.596,37.834,24.183,42.222,28.238,40.83z"/>
<path style="fill:#F6D600;" d="M0.338,9.784c0.451-0.451,1.183-0.451,1.634,0l6.899,6.899c0.377,0.377,0.447,0.963,0.17,1.418
	c-0.043,0.071-4.313,7.248-1.075,12.862c2.907,5.04,12.714,8.717,17.742,8.972l-9.483-9.483c-0.129-0.128-0.226-0.285-0.282-0.458
	c-0.063-0.193-1.485-4.795,3.885-10.165c5.37-5.37,9.973-3.947,10.165-3.884c0.173,0.057,0.33,0.153,0.458,0.281l9.484,9.484
	c-0.255-5.028-3.933-14.835-8.973-17.742c-5.635-3.251-12.79,1.031-12.861,1.075c-0.455,0.277-1.041,0.207-1.418-0.17L9.784,1.973
	c-0.451-0.451-0.451-1.183,0-1.634c0.451-0.451,1.183-0.451,1.634,0l6.286,6.286c2.254-1.156,8.767-3.917,14.414-0.66
	c4.302,2.482,7.046,8.559,8.025,11.056c1.417,3.612,2.733,8.815,1.779,11.593c-0.129,0.376-0.443,0.66-0.832,0.75
	c-0.389,0.09-0.796-0.026-1.077-0.309L29.048,18.09c-0.839-0.147-3.868-0.347-7.587,3.372c-3.707,3.707-3.521,6.73-3.37,7.588
	l10.963,10.963c0.282,0.282,0.399,0.689,0.309,1.078c-0.091,0.388-0.374,0.703-0.751,0.833c-2.777,0.953-7.98-0.363-11.593-1.78
	c-2.497-0.98-8.574-3.724-11.056-8.025c-3.258-5.647-0.496-12.16,0.66-14.414l-6.286-6.286C-0.113,10.967-0.113,10.235,0.338,9.784z
	"/>
</svg>
