<?xml version="1.0" encoding="iso-8859-1"?>
<!-- Generator: Adobe Illustrator 18.1.1, SVG Export Plug-In . SVG Version: 6.00 Build 0)  -->
<svg version="1.1" id="&#x421;&#x43B;&#x43E;&#x439;_1"
	 xmlns="http://www.w3.org/2000/svg" xmlns:xlink="http://www.w3.org/1999/xlink" x="0px" y="0px" viewBox="0 0 21.116 22.952"
	 style="enable-background:new 0 0 21.116 22.952;" xml:space="preserve">
<path style="fill:#949494;" d="M11.519,1.377C8.221,3.063,0.95,8.46,0.95,8.46s-2.474,7.945,0.562,14.242h17.39l2.136-22.674
	C21.038,0.028,14.817-0.31,11.519,1.377z M16.278,14.307c-0.952,0-1.724-0.361-1.724-0.806c0-0.445,0.772-0.806,1.724-0.806
	c0.952,0,1.724,0.361,1.724,0.806C18.002,13.946,17.231,14.307,16.278,14.307z M18.602,9.847L4.398,10.634
	c0,0,0.299-1.335,0.622-2.459C5.301,7.197,5.869,6.655,6.012,6.53c2.188-1.515,4.69-3.188,6.142-3.963
	c1.406-0.751,4.107-1.189,7.438-1.21L18.602,9.847z"/>
</svg>
