<?xml version="1.0" encoding="iso-8859-1"?>
<!-- Generator: Adobe Illustrator 18.1.1, SVG Export Plug-In . SVG Version: 6.00 Build 0)  -->
<svg version="1.1" id="&#x421;&#x43B;&#x43E;&#x439;_1"
	 xmlns="http://www.w3.org/2000/svg" xmlns:xlink="http://www.w3.org/1999/xlink" x="0px" y="0px" viewBox="0 0 12.235 12.234"
	 style="enable-background:new 0 0 12.235 12.234;" xml:space="preserve">
<path style="fill:#303030;" d="M8.452,1.45c-1.933-1.934-5.068-1.934-7.002,0c-1.934,1.934-1.934,5.068,0,7.002
	c1.701,1.702,4.333,1.905,6.258,0.612l2.89,2.889c0.374,0.375,0.981,0.375,1.356,0c0.374-0.374,0.374-0.982,0-1.356l-2.89-2.889
	C10.358,5.783,10.153,3.152,8.452,1.45z M7.601,7.601c-1.463,1.463-3.836,1.463-5.299,0c-1.464-1.463-1.463-3.836,0-5.299
	c1.463-1.463,3.836-1.463,5.299,0C9.065,3.765,9.065,6.138,7.601,7.601z"/>
</svg>
