<?xml version="1.0" encoding="iso-8859-1"?>
<!-- Generator: Adobe Illustrator 18.1.1, SVG Export Plug-In . SVG Version: 6.00 Build 0)  -->
<svg version="1.1" id="&#x421;&#x43B;&#x43E;&#x439;_1"
	 xmlns="http://www.w3.org/2000/svg" xmlns:xlink="http://www.w3.org/1999/xlink" x="0px" y="0px" viewBox="0 0 34 22"
	 style="enable-background:new 0 0 34 22;" xml:space="preserve">
<path style="fill:#949494;" d="M31.604,17.605h-2.188v-13.5h2.188c0.997,0,1.813-0.816,1.813-1.813S32.6,0.48,31.604,0.48h-6.625
	c-0.997,0-1.813,0.816-1.813,1.813s0.816,1.813,1.813,1.813h2.438v1.25h-9v1.063h9v2.452c-2.232,0.21-3.317,1.016-3.792,1.548H6.479
	V4.105h2.625c0.997,0,1.813-0.816,1.813-1.813S10.1,0.48,9.104,0.48H2.479c-0.997,0-1.813,0.816-1.813,1.813
	s0.816,1.813,1.813,1.813h2v1.373C3.961,5.999,2.447,7.653,2.134,9.492c-1.365,0.613-1.718,1.446-1.718,1.446l0.329,0.01
	l-0.329,0.01c0,0,0.357,0.84,1.737,1.453c0.35,1.799,1.818,3.401,2.326,3.913v1.279h-2c-0.997,0-1.813,0.816-1.813,1.813
	s0.816,1.813,1.813,1.813h6.625c0.997,0,1.813-0.816,1.813-1.813s-0.816-1.813-1.813-1.813H6.479v-6.188h17.165
	c0.484,0.532,1.569,1.32,3.772,1.527v2.41h-9v1.063h9v1.188h-2.438c-0.997,0-1.813,0.816-1.813,1.813s0.816,1.813,1.813,1.813h6.625
	c0.997,0,1.813-0.816,1.813-1.813S32.6,17.605,31.604,17.605z"/>
</svg>
