<?xml version="1.0" encoding="iso-8859-1"?>
<!-- Generator: Adobe Illustrator 18.1.1, SVG Export Plug-In . SVG Version: 6.00 Build 0)  -->
<svg version="1.1" id="&#x421;&#x43B;&#x43E;&#x439;_1"
	 xmlns="http://www.w3.org/2000/svg" xmlns:xlink="http://www.w3.org/1999/xlink" x="0px" y="0px" viewBox="0 0 23.553 24.101"
	 style="enable-background:new 0 0 23.553 24.101;" xml:space="preserve">
<g>
	<path style="fill:#909090;" d="M21.514,12.076l1.774-1.818c0.22-0.226,0.312-0.548,0.242-0.857c-0.07-0.308-0.29-0.56-0.587-0.669
		L20.561,7.85l0.81-2.408c0.101-0.3,0.043-0.629-0.152-0.877c-0.197-0.248-0.505-0.379-0.819-0.35L17.87,4.455l-0.313-2.52
		c-0.039-0.314-0.234-0.586-0.519-0.724c-0.284-0.138-0.619-0.123-0.89,0.041l-2.195,1.324l-1.396-2.15
		C12.385,0.16,12.09,0,11.774,0c-0.316,0-0.61,0.16-0.782,0.425l-1.384,2.13L7.437,1.236c-0.27-0.164-0.604-0.181-0.889-0.043
		C6.264,1.329,6.068,1.601,6.028,1.914L5.705,4.434L3.177,4.186c-0.314-0.031-0.623,0.1-0.82,0.347
		C2.159,4.78,2.101,5.109,2.2,5.409l0.802,2.411L0.616,8.692C0.319,8.801,0.099,9.052,0.028,9.36
		c-0.071,0.308,0.02,0.63,0.239,0.857l1.767,1.824l-1.77,1.821c-0.22,0.226-0.31,0.549-0.24,0.857
		c0.069,0.308,0.291,0.56,0.588,0.669l2.383,0.878l-0.806,2.409c-0.1,0.3-0.042,0.63,0.155,0.877
		C2.54,19.799,2.849,19.93,3.163,19.9l2.528-0.243l0.318,2.52c0.04,0.314,0.235,0.586,0.52,0.723
		c0.284,0.138,0.619,0.122,0.89-0.042l2.172-1.315l1.381,2.132c0.172,0.265,0.466,0.426,0.781,0.426h0.002
		c0.315,0,0.609-0.159,0.781-0.423l1.388-2.128l2.169,1.324c0.269,0.164,0.604,0.181,0.889,0.045
		c0.284-0.137,0.481-0.408,0.522-0.722l0.328-2.519l2.527,0.252c0.314,0.031,0.623-0.099,0.82-0.345
		c0.198-0.247,0.257-0.576,0.158-0.876l-0.798-2.411l2.387-0.869c0.297-0.108,0.52-0.359,0.59-0.667
		c0.071-0.308-0.019-0.63-0.237-0.858L21.514,12.076z M8.783,14.124c0,0.151-0.122,0.274-0.273,0.274h-0.82
		c-0.098,0-0.188-0.052-0.237-0.136l-0.96-1.654c-0.157-0.27-0.433-0.761-0.686-1.296c0.019,0.507,0.028,1.047,0.028,1.641v1.171
		c0,0.151-0.123,0.274-0.274,0.274H4.965c-0.152,0-0.274-0.123-0.274-0.274V9.977c0-0.152,0.122-0.274,0.274-0.274h0.948
		c0.097,0,0.186,0.051,0.235,0.134l0.931,1.567c0.213,0.361,0.427,0.772,0.609,1.173c-0.034-0.426-0.049-0.896-0.049-1.469V9.977
		c0-0.151,0.122-0.274,0.273-0.274h0.596c0.152,0,0.274,0.123,0.274,0.274V14.124z M12.502,14.124c0,0.151-0.123,0.274-0.274,0.274
		H9.586c-0.152,0-0.274-0.123-0.274-0.274V9.977c0-0.152,0.122-0.274,0.274-0.274h2.542c0.152,0,0.274,0.123,0.274,0.274v0.45
		c0,0.152-0.122,0.274-0.274,0.274h-1.58v0.786h1.475c0.152,0,0.274,0.123,0.274,0.274v0.443c0,0.151-0.122,0.274-0.274,0.274
		h-1.475V13.4h1.68c0.151,0,0.273,0.123,0.273,0.274v0.45H12.502z M18.853,10.048l-1.122,4.148c-0.032,0.12-0.141,0.203-0.265,0.203
		h-0.855c-0.13,0-0.242-0.091-0.269-0.219l-0.37-1.796c-0.066-0.333-0.121-0.627-0.166-0.934c-0.06,0.33-0.12,0.627-0.196,0.937
		l-0.416,1.799c-0.028,0.125-0.14,0.212-0.268,0.212h-0.868c-0.126,0-0.236-0.085-0.267-0.208l-1.031-4.148
		c-0.021-0.082-0.002-0.168,0.05-0.235c0.053-0.066,0.132-0.106,0.216-0.106h0.738c0.131,0,0.244,0.093,0.269,0.223l0.33,1.714
		c0.076,0.389,0.148,0.799,0.212,1.172c0.066-0.357,0.146-0.744,0.241-1.188l0.368-1.705c0.027-0.126,0.139-0.216,0.269-0.216h0.824
		c0.131,0,0.243,0.092,0.269,0.221l0.35,1.755c0.069,0.346,0.129,0.686,0.187,1.06c0.042-0.249,0.089-0.502,0.139-0.765l0.003-0.017
		c0.021-0.109,0.041-0.219,0.061-0.329c0.001-0.002,0.001-0.004,0.002-0.006l0.354-1.701c0.026-0.127,0.139-0.218,0.269-0.218h0.678
		c0.086,0,0.167,0.04,0.219,0.107C18.858,9.878,18.876,9.966,18.853,10.048L18.853,10.048z M18.853,10.048"/>
</g>
</svg>
