<?xml version="1.0" encoding="iso-8859-1"?>
<!-- Generator: Adobe Illustrator 18.1.1, SVG Export Plug-In . SVG Version: 6.00 Build 0)  -->
<svg version="1.1" id="&#x421;&#x43B;&#x43E;&#x439;_1"
	 xmlns="http://www.w3.org/2000/svg" xmlns:xlink="http://www.w3.org/1999/xlink" x="0px" y="0px" viewBox="0 0 12.063 13.875"
	 style="enable-background:new 0 0 12.063 13.875;" xml:space="preserve">
<path style="fill:#BEBEBE;" d="M6.031,13.875C2.706,13.875,0,11.169,0,7.844c0-2.292,1.272-4.357,3.319-5.389
	C3.69,2.269,4.141,2.418,4.327,2.787c0.187,0.37,0.037,0.821-0.332,1.008C2.456,4.57,1.5,6.122,1.5,7.844
	c0,2.499,2.032,4.531,4.531,4.531s4.531-2.032,4.531-4.531c0-1.713-0.948-3.261-2.475-4.039c-0.369-0.188-0.516-0.64-0.327-1.009
	C7.949,2.428,8.399,2.279,8.77,2.469c2.031,1.036,3.293,3.096,3.293,5.375C12.063,11.169,9.356,13.875,6.031,13.875z"/>
<path style="fill:#BEBEBE;" d="M6.938,6.156c0,0.5-0.406,0.906-0.906,0.906l0,0c-0.5,0-0.906-0.406-0.906-0.906v-5.25
	C5.125,0.406,5.531,0,6.031,0l0,0c0.5,0,0.906,0.406,0.906,0.906V6.156z"/>
</svg>
