<?xml version="1.0" encoding="iso-8859-1"?>
<!-- Generator: Adobe Illustrator 18.1.1, SVG Export Plug-In . SVG Version: 6.00 Build 0)  -->
<svg version="1.1" id="&#x421;&#x43B;&#x43E;&#x439;_1"
	 xmlns="http://www.w3.org/2000/svg" xmlns:xlink="http://www.w3.org/1999/xlink" x="0px" y="0px" viewBox="0 0 26 27"
	 style="enable-background:new 0 0 26 27;" xml:space="preserve">
<path style="fill:#B5B5B5;" d="M24.737,5.521l0.002-0.003L13.457,0.448l-0.01,0.022c-0.152-0.05-0.313-0.085-0.481-0.085
	c-0.172,0-0.334,0.035-0.488,0.087l-0.011-0.024L1.186,5.518l0.002,0.003c-0.532,0.24-0.903,0.773-0.903,1.394v12.99
	c0,0.621,0.371,1.153,0.903,1.394l-0.002,0.003l11.008,4.946c0.228,0.134,0.489,0.216,0.773,0.216c0.301,0,0.579-0.09,0.815-0.239
	l10.957-4.924l-0.002-0.003c0.532-0.24,0.903-0.772,0.903-1.393V6.915C25.64,6.294,25.269,5.761,24.737,5.521z M24.109,18.373v1.531
	v0.001l-10.377,4.663V12.694l10.377-4.663v0.415V18.373z M1.816,18.374V8.446V7.97L5.26,9.518v2.653l2.598,1.239v-2.725l4.343,1.952
	v11.936L1.816,19.906v-0.002V18.374z M12.99,1.917l2.97,1.334L5.505,7.949L2.508,6.603l10.428-4.686H12.99z M13.03,11.331
	L8.667,9.37l10.454-4.698l4.362,1.961L13.03,11.331z"/>
</svg>
