<?xml version="1.0" encoding="utf-8"?>
<!-- Generator: Adobe Illustrator 18.1.1, SVG Export Plug-In . SVG Version: 6.00 Build 0)  -->
<svg version="1.1" id="Слой_1" xmlns="http://www.w3.org/2000/svg" xmlns:xlink="http://www.w3.org/1999/xlink" x="0px" y="0px"
	 viewBox="300.8 390.6 21.8 8.5" enable-background="new 300.8 390.6 21.8 8.5" xml:space="preserve">
<g>
	<path fill="#949494" d="M320.3,398.9h-1.7v-6.8h-2.2v-1.4h6.2v1.4h-2.3V398.9z"/>
	<path fill="#949494" d="M308.7,394.8c0,1.4-0.4,2.4-1,3.2c-0.7,0.7-1.6,1.1-2.9,1.1s-2.2-0.4-2.9-1.1c-0.7-0.7-1-1.8-1-3.2
		c0-1.4,0.4-2.4,1-3.1c0.7-0.7,1.7-1.1,2.9-1.1c1.3,0,2.2,0.4,2.9,1.1C308.4,392.4,308.7,393.4,308.7,394.8z M302.6,394.8
		c0,0.9,0.2,1.6,0.5,2.1c0.4,0.5,0.9,0.7,1.6,0.7c1.4,0,2.1-0.9,2.1-2.8c0-1.9-0.7-2.8-2.1-2.8c-0.7,0-1.2,0.2-1.6,0.7
		C302.8,393.2,302.6,393.9,302.6,394.8z"/>
	<path fill="#949494" d="M311.4,392.1l-0.5,0l0,6.8h-1.7v-8.2h6.2v8.2h-1.7l0-6.8h-0.5H311.4z"/>
</g>
</svg>
